<svg xmlns="http://www.w3.org/2000/svg" width="96" height="10"><path d="M3.927 2.75c0 .607-.207 1.074-.62 1.4s-1.007.5-1.778.5H.822V7H.124V1.004H1.68c1.498 0 2.248.582 2.248 1.747zM.822 4.043h.628c.618 0 1.065-.1 1.34-.3s.414-.52.414-.96c0-.396-.13-.692-.4-.886s-.664-.29-1.214-.29H.81v2.436zm8.137.705c0 .733-.185 1.305-.554 1.717s-.88.617-1.53.617c-.402 0-.76-.094-1.07-.283s-.552-.46-.722-.812-.254-.766-.254-1.24c0-.733.183-1.304.55-1.712s.875-.613 1.526-.613c.63 0 1.13.21 1.5.628s.556.984.556 1.698zm-3.425 0c0 .574.115 1.012.345 1.312s.567.45 1.013.45.784-.15 1.015-.45.347-.738.347-1.315c0-.57-.116-1.006-.347-1.302S7.335 3 6.884 3c-.446 0-.782.146-1.01.44s-.34.73-.34 1.308zM13.824 7L13 4.363a22.35 22.35 0 01-.291-1.099h-.033l-.287 1.107L11.54 7h-.787L9.525 2.505h.714l.662 2.58.26 1.194h.033l.146-.605.174-.59.824-2.58h.738l.804 2.58c.153.47.257.865.312 1.185h.033c.01-.098.04-.25.088-.455l.855-3.3h.705L14.632 7h-.808zm4.762.082c-.664 0-1.19-.202-1.573-.607s-.576-.967-.576-1.686c0-.725.178-1.3.535-1.727s.836-.64 1.438-.64c.563 0 1.01.185 1.337.556s.492.86.492 1.466v.43h-3.097c.014.528.147.928.4 1.202s.61.4 1.068.4a3.62 3.62 0 001.436-.304v.607c-.24.104-.468.178-.683.224s-.474.068-.777.068zm-.185-4.09c-.36 0-.65.118-.863.353s-.34.56-.38.976h2.35c0-.43-.096-.758-.287-.986s-.465-.342-.82-.342zm5.05-.57c.2 0 .38.016.537.05l-.094.632a2.32 2.32 0 00-.492-.062c-.364 0-.675.148-.933.443s-.388.663-.388 1.103V7h-.68V2.505h.562l.078.833h.033c.167-.293.368-.518.603-.677s.494-.238.775-.238zm3.277 4.66c-.664 0-1.19-.202-1.573-.607s-.576-.967-.576-1.686c0-.725.178-1.3.535-1.727s.836-.64 1.438-.64c.563 0 1.01.185 1.337.556s.492.86.492 1.466v.43h-3.097c.014.528.147.928.4 1.202s.61.4 1.068.4a3.62 3.62 0 001.436-.304v.607c-.24.104-.468.178-.683.224s-.474.068-.777.068zm-.185-4.09c-.36 0-.65.118-.863.353s-.34.56-.38.976h2.35c0-.43-.096-.758-.287-.986s-.465-.342-.82-.342zM32.6 6.397h-.037c-.314.457-.785.685-1.41.685-.588 0-1.045-.2-1.372-.603s-.5-.973-.5-1.714.164-1.317.492-1.727.785-.615 1.37-.615c.6 0 1.077.22 1.403.664h.053l-.03-.324-.016-.316V.618h.68V7h-.554l-.1-.603zm-1.362.115c.465 0 .802-.126 1.01-.38s.314-.66.314-1.224v-.144c0-.637-.106-1.092-.318-1.364s-.55-.408-1.015-.408a1.04 1.04 0 00-.917.466c-.212.3-.318.75-.318 1.315 0 .574.105 1.008.316 1.3s.52.44.927.44zm5.734-5.508h1.694c.796 0 1.37.12 1.727.357s.533.614.533 1.128c0 .355-.1.65-.297.88s-.487.38-.867.45v.04c.91.156 1.366.634 1.366 1.436 0 .536-.18.954-.543 1.255s-.87.45-1.52.45h-2.092V1.004zm.697 2.568h1.148c.492 0 .846-.077 1.062-.232s.324-.415.324-.78c0-.336-.12-.58-.36-.728s-.623-.224-1.148-.224H37.67V3.57zm0 .59v2.244h1.25c.484 0 .848-.094 1.093-.28s.367-.48.367-.88c0-.372-.125-.645-.375-.82s-.63-.262-1.142-.262H37.67zm3.93-1.657h.73l.984 2.563.402 1.267h.033a11.71 11.71 0 01.224-.716l1.114-3.115h.73l-1.932 5.12c-.19.506-.415.865-.67 1.077s-.57.318-.94.318a2.74 2.74 0 01-.615-.07v-.546c.15.033.32.05.504.05.468 0 .8-.262 1-.787l.25-.64-1.813-4.52z" fill="#212529"/><path d="M55.624 5.344c-.176.576-.488 1.012-.937 1.306s-.986.44-1.61.44c-.588 0-1.1-.124-1.538-.373s-.772-.605-1.006-1.07-.35-1.015-.35-1.652.117-1.188.35-1.652.567-.82 1-1.07S52.475.9 53.057.9c.625 0 1.154.13 1.588.39s.733.65.896 1.165l-1.137.482c-.097-.358-.25-.616-.455-.773s-.485-.237-.837-.237c-.5 0-.908.18-1.197.537s-.432.868-.432 1.53.14 1.17.42 1.53.673.537 1.183.537c.734 0 1.195-.355 1.383-1.065l1.156.346zm3.04-2.985c.734 0 1.306.21 1.715.628s.614.998.614 1.738-.205 1.32-.614 1.738-.98.628-1.715.628-1.306-.21-1.715-.628-.614-.998-.614-1.738.205-1.32.614-1.738.98-.628 1.715-.628zm0 .928c-.352 0-.62.12-.805.36s-.278.6-.278 1.078.093.84.278 1.078.453.36.805.36.62-.12.805-.36.278-.6.278-1.078-.093-.84-.278-1.078-.453-.36-.805-.36zm5.496-.928c.734 0 1.306.21 1.715.628s.614.998.614 1.738-.205 1.32-.614 1.738-.98.628-1.715.628-1.306-.21-1.715-.628-.614-.998-.614-1.738.205-1.32.614-1.738.98-.628 1.715-.628zm0 .928c-.352 0-.62.12-.805.36s-.278.6-.278 1.078.093.84.278 1.078.453.36.805.36.62-.12.805-.36.278-.6.278-1.078-.093-.84-.278-1.078-.453-.36-.805-.36zm5.478 1.702l-.828.883V7h-1.247V.457H68.8v4.068l1.975-2.075h1.4l-1.71 1.784L72.304 7h-1.4l-1.256-2.01zm4.03-3.194c-.516 0-.773-.22-.773-.664 0-.45.258-.673.773-.673s.773.224.773.673c0 .443-.258.664-.773.664zM74.288 7H73.04V2.45h1.247V7zm5.57-2.293a3.23 3.23 0 01-.036.491H76.6c.127.643.507.965 1.138.965.26 0 .476-.05.646-.146s.288-.237.355-.42l1.02.373a1.61 1.61 0 01-.733.833c-.343.19-.772.287-1.288.287-.752 0-1.335-.208-1.747-.623s-.62-.996-.62-1.743.2-1.327.6-1.743.965-.623 1.693-.623c.704 0 1.245.203 1.624.6s.57.986.57 1.738zm-2.202-1.43c-.303 0-.544.088-.723.264s-.293.437-.34.783h2.12c-.05-.34-.164-.6-.346-.778s-.42-.268-.7-.268zM83.552.994c.698 0 1.24.168 1.63.505s.582.81.582 1.424c0 .595-.194 1.06-.582 1.392s-.93.5-1.63.5h-1.265V7H81.03V.994h2.52zm-.19 2.848c.388 0 .673-.077.855-.232s.273-.387.273-.696-.09-.54-.273-.692-.467-.227-.855-.227h-1.074v1.847h1.074zm5.997-1.483c.212 0 .376.033.49.1l-.155 1.092c-.14-.09-.33-.136-.573-.136a1.05 1.05 0 00-.769.323c-.215.215-.323.517-.323.905V7h-1.247V2.45h1.083l.082.892c.25-.655.72-.983 1.4-.983zm3.358 0c.734 0 1.306.21 1.715.628s.614.998.614 1.738-.205 1.32-.614 1.738-.98.628-1.715.628S91.4 6.882 91 6.463s-.614-.998-.614-1.738.205-1.32.614-1.738.98-.628 1.715-.628zm0 .928c-.352 0-.62.12-.805.36s-.278.6-.278 1.078.093.84.278 1.078.453.36.805.36.62-.12.805-.36.278-.6.278-1.078-.093-.84-.278-1.078-.453-.36-.805-.36z" fill="#69c"/></svg>